<?xml version="1.0" standalone="no"?>
<!DOCTYPE svg PUBLIC "-//W3C//DTD SVG 20010904//EN"
 "http://www.w3.org/TR/2001/REC-SVG-20010904/DTD/svg10.dtd">
<svg version="1.0" xmlns="http://www.w3.org/2000/svg"
 width="260.000000pt" height="260.000000pt" viewBox="0 0 260.000000 260.000000"
 preserveAspectRatio="xMidYMid meet">
<metadata>
Created by potrace 1.11, written by Peter Selinger 2001-2013
</metadata>
<g transform="translate(0.000000,260.000000) scale(0.100000,-0.100000)"
fill="#000000" stroke="none">
<path d="M1132 2590 c-557 -79 -988 -483 -1108 -1041 -26 -118 -26 -380 0
-498 59 -273 167 -473 361 -666 193 -194 393 -302 666 -361 118 -26 380 -26
498 0 273 59 473 167 666 361 194 193 302 393 361 666 14 62 18 127 18 249 0
122 -4 187 -18 249 -59 273 -167 473 -361 666 -190 190 -383 297 -645 356 -98
22 -340 33 -438 19z m553 -1161 c115 -323 130 -358 140 -337 7 12 68 175 136
361 l123 337 83 0 83 0 0 -470 0 -470 -60 0 -60 0 0 377 c0 212 -4 373 -9 368
-4 -6 -61 -154 -126 -330 -65 -176 -122 -328 -127 -338 -8 -15 -20 -17 -71
-15 l-61 3 -120 338 -121 337 -3 -370 -2 -370 -60 0 -60 0 0 470 0 470 93 0
93 0 129 -361z"/>
</g>
</svg>
